<?xml version="1.0" standalone="no"?>
<!DOCTYPE svg PUBLIC "-//W3C//DTD SVG 20010904//EN"
 "http://www.w3.org/TR/2001/REC-SVG-20010904/DTD/svg10.dtd">
<svg version="1.0" xmlns="http://www.w3.org/2000/svg"
 width="434.000000pt" height="434.000000pt" viewBox="0 0 434.000000 434.000000"
 preserveAspectRatio="xMidYMid meet">
<metadata>
Created by potrace 1.11, written by Peter Selinger 2001-2013
</metadata>
<g transform="translate(0.000000,434.000000) scale(0.100000,-0.100000)"
fill="#000000" stroke="none">
<path d="M0 4214 l0 -127 167 7 c149 6 2525 7 2985 2 188 -2 272 -14 122 -18
-43 -1 -133 -2 -199 -4 -244 -5 -2707 -3 -2888 2 l-189 5 4 -23 c3 -23 5 -23
128 -22 69 0 735 1 1480 2 1352 1 1746 -1 1756 -11 7 -6 -216 -18 -331 -16
-49 0 -695 1 -1435 1 -740 0 -1403 1 -1473 3 -127 3 -128 3 -125 -18 3 -22 5
-22 173 -20 393 6 3002 1 3130 -5 l140 -7 -185 -8 c-153 -7 -2784 -11 -3145
-5 -96 2 -110 0 -113 -15 -3 -16 92 -17 1535 -17 846 0 1621 -2 1723 -5 102
-3 221 -5 264 -5 44 0 77 -3 73 -6 -10 -10 -271 -12 -1772 -12 -1636 0 -1784
-1 -1807 -1 -10 -1 -18 -8 -18 -16 0 -11 11 -15 43 -15 23 0 384 0 802 0 1982
2 2820 -2 2832 -13 3 -4 -18 -8 -48 -8 -30 -1 -128 -3 -219 -5 -91 -2 -895 -4
-1787 -4 -1434 0 -1623 -2 -1623 -15 0 -13 189 -15 1623 -15 1774 0 2099 -3
1932 -19 -78 -8 -899 -13 -2369 -15 -948 -1 -1180 -4 -1184 -14 -3 -10 255
-12 1355 -12 1476 1 2116 -1 2233 -10 l75 -5 -85 -6 c-93 -6 -1063 -13 -1520
-10 -661 3 -2054 1 -2058 -4 -23 -23 72 -25 889 -25 1626 2 1833 1 2364 -5
291 -3 531 -8 534 -10 4 -5 -71 -6 -419 -10 -270 -4 -1682 -7 -2484 -6 -495 1
-874 -3 -879 -8 -5 -5 -4 -11 1 -15 6 -3 401 -6 879 -5 1708 3 2799 -4 2812
-17 2 -2 -63 -4 -145 -5 -82 -1 -174 -2 -204 -4 -30 -1 -622 -3 -1315 -3
-1605 1 -2018 -2 -2028 -12 -26 -24 -79 -23 1933 -20 580 1 1226 -2 1435 -7
l380 -8 -220 -5 c-579 -14 -1915 -16 -2585 -5 -206 4 -379 7 -385 7 -37 3
-551 -15 -557 -19 -23 -13 12 -23 85 -24 104 -1 264 -15 217 -19 -19 -1 -96
-5 -170 -9 -79 -3 -135 -10 -135 -16 0 -9 90 -15 324 -24 19 0 32 -4 29 -7 -3
-3 -84 -8 -179 -12 -105 -4 -174 -11 -174 -17 0 -6 71 -12 180 -16 99 -4 189
-8 200 -9 50 -7 -95 -18 -233 -19 -118 -1 -153 -4 -150 -13 4 -10 57 -14 206
-18 110 -3 204 -8 208 -13 9 -9 15 -9 -216 -16 -265 -8 -257 -25 17 -31 116
-3 215 -8 219 -12 4 -5 -1 -9 -12 -9 -10 -1 -23 -2 -29 -4 -5 -1 -97 -3 -202
-3 -164 -2 -193 -4 -193 -17 0 -13 30 -15 208 -16 114 -1 212 -2 217 -4 6 -1
17 -3 25 -4 13 -1 13 -2 0 -11 -8 -5 -110 -10 -233 -10 -170 0 -218 -3 -215
-12 4 -10 63 -14 234 -18 126 -3 230 -7 232 -8 1 -1 2 -6 2 -12 0 -6 -85 -10
-235 -10 -202 0 -235 -2 -235 -15 0 -13 33 -15 238 -15 238 0 296 -5 270 -21
-7 -5 -124 -9 -260 -9 -214 0 -248 -2 -248 -15 0 -13 36 -15 263 -15 144 0
273 -3 285 -7 61 -16 -22 -23 -275 -23 -236 0 -273 -2 -273 -15 0 -13 38 -15
284 -15 156 0 291 -3 300 -6 51 -19 -20 -25 -287 -23 -278 2 -292 1 -292 -16
0 -18 14 -19 310 -16 301 3 365 -1 365 -21 0 -5 -132 -8 -337 -7 -304 1 -338
0 -341 -15 -2 -9 2 -16 10 -16 7 -1 157 0 333 0 326 1 444 -5 427 -22 -6 -6
-167 -8 -391 -6 -366 3 -382 2 -379 -15 3 -18 23 -19 428 -18 423 1 518 -3
487 -21 -9 -5 -219 -7 -467 -6 -444 3 -450 3 -450 -17 0 -20 6 -20 582 -17
586 3 873 -4 758 -19 -30 -4 -343 -7 -695 -7 -614 0 -640 -1 -643 -19 -3 -17
20 -18 625 -15 623 3 811 -1 748 -19 -16 -5 -331 -9 -700 -8 -639 0 -670 -1
-673 -18 -3 -17 46 -18 1255 -16 692 1 1312 -1 1378 -4 309 -16 -43 -22 -1290
-22 -1280 0 -1340 -1 -1340 -18 0 -16 9 -18 70 -17 197 2 2567 3 3358 1 l907
-2 0 22 0 21 -708 -4 c-444 -3 -712 -1 -721 5 -31 21 105 24 757 18 l672 -6 0
23 0 24 -668 -6 c-658 -5 -815 -1 -762 20 16 7 273 8 728 5 l702 -6 0 22 0 23
-677 -2 c-372 0 -701 2 -732 5 -99 12 673 23 1047 16 l362 -8 0 27 0 26 -510
-7 c-362 -4 -510 -3 -510 5 0 20 156 25 588 18 l432 -7 0 26 0 25 -433 -7
c-298 -4 -439 -3 -452 5 -38 21 77 25 483 19 l402 -6 0 24 0 24 -405 -6 c-295
-5 -405 -3 -405 5 0 22 78 25 442 18 l368 -6 0 25 0 25 -368 -7 c-263 -4 -371
-3 -376 5 -13 21 88 25 416 18 l328 -7 0 25 0 25 -346 -6 c-296 -5 -346 -4
-342 8 4 12 60 14 346 11 l342 -2 0 24 0 24 -324 -5 c-228 -4 -325 -3 -330 5
-13 21 68 25 361 19 l293 -7 0 56 0 56 -248 -8 c-137 -4 -271 -3 -298 1 l-49
8 35 9 c19 4 153 6 298 3 l262 -6 0 576 0 575 -504 0 c-394 0 -505 -3 -509
-12 -4 -10 -6 -10 -6 0 -1 14 -28 16 -33 2 -1 -5 -14 -10 -28 -10 -14 0 -56
-1 -95 -3 -38 -1 -724 -2 -1524 -2 -1155 0 -1455 3 -1459 13 -2 8 -30 12 -93
12 l-89 0 0 -126z m37 110 c-3 -3 -12 -4 -19 -1 -8 3 -5 6 6 6 11 1 17 -2 13
-5z m2735 -46 c356 -2 478 -6 478 -15 0 -9 -346 -11 -1427 -11 -786 0 -1473 3
-1528 6 l-100 7 100 6 c55 3 518 7 1029 8 512 1 932 4 935 6 2 3 12 3 20 1 9
-3 231 -6 493 -8z m-2684 -15 c-10 -2 -28 -2 -40 0 -13 2 -5 4 17 4 22 1 32
-1 23 -4z m3230 0 c-10 -2 -26 -2 -35 0 -10 3 -2 5 17 5 19 0 27 -2 18 -5z
m-195 -49 c92 -4 165 -9 162 -12 -2 -3 -62 -6 -132 -7 -155 -3 -2755 -3 -2833
-1 -30 2 -102 4 -160 6 l-105 4 105 6 c153 8 2765 12 2963 4z m132 -64 c40 -7
40 -7 -15 -10 -30 -2 -82 -4 -115 -5 -84 -2 -2840 -2 -2895 0 -124 6 -133 9
-45 15 121 9 3019 8 3070 0z m128 -7 c-13 -2 -35 -2 -50 0 -16 2 -5 4 22 4 28
0 40 -2 28 -4z m4 -59 c-3 -3 -12 -4 -19 -1 -8 3 -5 6 6 6 11 1 17 -2 13 -5z
m116 -1 c-7 -2 -19 -2 -25 0 -7 3 -2 5 12 5 14 0 19 -2 13 -5z m-35 -60 c-10
-2 -28 -2 -40 0 -13 2 -5 4 17 4 22 1 32 -1 23 -4z m29 -59 c-3 -3 -12 -4 -19
-1 -8 3 -5 6 6 6 11 1 17 -2 13 -5z m156 -181 c-7 -2 -19 -2 -25 0 -7 3 -2 5
12 5 14 0 19 -2 13 -5z m92 -63 c-33 -4 -64 -3 -69 2 -6 4 21 7 60 7 l69 -2
-60 -7z m82 -56 c-3 -3 -12 -4 -19 -1 -8 3 -5 6 6 6 11 1 17 -2 13 -5z m-64
-61 c-7 -2 -21 -2 -30 0 -10 3 -4 5 12 5 17 0 24 -2 18 -5z m-553 -110 l285
-7 -175 -8 c-182 -7 -2185 -11 -2255 -4 -22 3 -58 5 -80 5 -23 1 -35 5 -28 9
7 4 160 9 340 11 180 1 329 4 331 5 5 6 1301 -4 1582 -11z m408 -10 c-10 -2
-28 -2 -40 0 -13 2 -5 4 17 4 22 1 32 -1 23 -4z m-898 -43 c250 -1 484 -5 520
-9 169 -18 -445 -27 -1533 -23 -405 2 -554 6 -575 15 -22 10 22 13 258 17 281
5 433 5 1330 0z m-96 -59 c214 -1 410 -5 435 -9 l46 -7 -70 -6 c-144 -13
-1686 -17 -1772 -4 -95 14 -32 24 159 25 111 0 203 2 205 4 2 2 139 2 306 1
166 -1 477 -3 691 -4z m-1626 -28 c6 -19 -45 -16 -52 3 -5 12 0 15 21 12 14
-2 28 -9 31 -15z m3085 10 c-13 -2 -35 -2 -50 0 -16 2 -5 4 22 4 28 0 40 -2
28 -4z m-1608 -43 c165 -1 325 -5 355 -9 l55 -7 -80 -6 c-141 -13 -1428 -15
-1492 -3 -19 3 -32 9 -28 13 14 15 467 19 1190 12z m1708 -10 c99 -7 -70 -15
-203 -10 l-135 5 120 5 c119 5 136 5 218 0z m-1240 -7 c-7 -2 -21 -2 -30 0
-10 3 -4 5 12 5 17 0 24 -2 18 -5z m247 -8 c0 -8 -9 -15 -20 -15 -11 0 -20 7
-20 15 0 8 9 15 20 15 11 0 20 -7 20 -15z m1083 8 c-7 -2 -21 -2 -30 0 -10 3
-4 5 12 5 17 0 24 -2 18 -5z m-1818 -44 c154 -1 305 -5 335 -8 110 -14 -183
-23 -770 -24 -531 -1 -702 4 -685 21 10 10 331 18 605 16 129 -1 361 -3 515
-5z m1719 -8 c55 -1 97 -3 95 -5 -7 -8 -423 -15 -464 -9 -68 11 -8 18 138 16
73 0 177 -2 231 -2z m-1784 -51 c168 -2 325 -6 350 -9 l45 -5 -60 -6 c-55 -6
-264 -9 -835 -13 -281 -2 -485 5 -485 18 0 19 207 22 985 15z m229 -65 c62 -2
115 -6 118 -8 12 -12 -179 -18 -687 -19 -305 -1 -570 1 -587 6 -65 15 -30 25
100 29 156 3 892 -2 1056 -8z m1559 -2 c78 -3 140 -8 138 -10 -8 -8 -576 -14
-588 -7 -35 22 173 30 450 17z m-1786 -53 c267 -1 346 -8 289 -23 -21 -5 -437
-10 -892 -10 -191 0 -303 4 -315 11 -16 9 -16 12 -4 16 23 9 144 11 395 9 127
-1 364 -2 527 -3z m238 -67 c54 -6 55 -6 20 -14 -57 -13 -1132 -14 -1155 -2
-46 26 25 29 625 26 250 -2 480 -6 510 -10z m0 -59 l25 -6 -23 -9 c-33 -13
-1105 -14 -1128 -1 -44 25 40 28 651 24 248 -1 461 -5 475 -8z m-40 -60 c61
-7 63 -8 30 -15 -54 -12 -1090 -13 -1120 -1 -25 10 -25 10 10 16 19 3 64 7
100 9 128 4 916 -3 980 -9z m0 -61 l55 -6 -40 -8 c-55 -11 -1061 -11 -1105 -1
l-35 9 45 7 c25 3 68 7 95 9 102 5 932 -3 985 -10z m25 -62 c37 -14 -73 -21
-380 -22 -537 -2 -639 -1 -710 7 -62 7 -66 9 -35 15 48 9 1100 9 1125 0z m-45
-57 c114 -17 -42 -24 -515 -23 -275 1 -513 1 -530 0 -37 -2 -99 9 -92 15 3 3
40 8 84 11 43 2 79 5 80 6 5 5 936 -4 973 -9z m-10 -61 l65 -7 -45 -7 c-73
-12 -1152 -11 -1164 1 -5 5 -8 11 -6 11 44 14 1026 16 1150 2z m133 -10 c-7
-2 -21 -2 -30 0 -10 3 -4 5 12 5 17 0 24 -2 18 -5z"/>
<path d="M2 2498 c3 -22 5 -23 108 -22 256 3 2315 4 3228 1 l1002 -3 0 21 0
21 -997 -3 c-1600 -4 -3057 -3 -3206 3 l-139 5 4 -23z"/>
<path d="M2 2438 c3 -23 4 -23 128 -21 194 4 2093 3 3208 0 l1002 -4 0 22 0
22 -1002 -3 c-1522 -6 -3121 -4 -3236 2 l-104 6 4 -24z"/>
<path d="M4 2386 c-13 -34 5 -38 130 -31 122 6 1371 7 3204 2 l1002 -3 0 21 0
22 -997 -4 c-1622 -5 -3089 -4 -3216 2 -99 5 -118 4 -123 -9z"/>
<path d="M0 2315 l0 -27 268 8 c147 4 537 6 867 6 330 -1 1091 -2 1690 -3 600
-1 1144 -4 1210 -8 l120 -6 -180 -8 c-99 -4 -648 -8 -1220 -7 -572 0 -1321 -1
-1665 -1 -344 -1 -730 2 -857 6 l-233 7 0 -27 0 -28 215 7 c118 4 594 6 1057
5 464 -1 1154 -1 1533 0 380 2 812 -1 960 -5 l270 -9 -160 -6 c-88 -3 -491 -6
-895 -6 -404 0 -1167 -1 -1695 -2 -528 -1 -1034 1 -1123 5 l-164 7 4 -24 3
-24 180 1 c515 4 3298 1 3654 -3 112 -2 201 -6 198 -10 -4 -3 -575 -8 -1270
-11 -1676 -6 -1987 -5 -2410 2 l-358 7 3 -23 3 -23 225 1 c124 1 569 2 990 2
421 -1 1019 0 1330 1 311 1 734 -1 940 -6 368 -7 372 -8 195 -14 -194 -8
-1761 -12 -2665 -8 -305 1 -658 3 -785 3 l-230 1 -3 -24 -4 -23 489 8 c268 4
605 8 748 8 302 1 1116 -12 1122 -18 6 -6 -716 -20 -1062 -20 -170 -1 -532 3
-802 8 l-493 8 0 -27 0 -28 453 8 c248 4 533 9 632 11 157 3 1238 -17 1232
-22 -4 -4 -813 -19 -1017 -19 -118 1 -459 5 -757 9 l-543 9 0 -26 c0 -26 0
-26 98 -30 l97 -3 -97 -2 c-97 -2 -98 -2 -98 -27 l0 -25 133 -2 132 -2 -130
-6 -130 -5 -2 -166 c-3 -191 -14 -174 107 -178 109 -3 100 -11 -13 -11 l-97 0
0 -27 0 -26 353 7 c486 9 1444 7 1487 -3 l35 -8 -48 -8 c-27 -4 -449 -6 -938
-3 l-889 4 0 -21 0 -22 893 4 c490 3 921 1 957 -3 l65 -7 -40 -9 c-23 -5 -429
-7 -958 -5 l-918 4 3 -21 3 -21 906 4 c498 2 930 0 960 -4 l54 -8 -35 -9 c-19
-4 -451 -7 -960 -6 l-925 3 -3 -52 -3 -52 868 4 c477 2 895 1 928 -3 l60 -8
-90 -7 c-49 -5 -467 -6 -927 -3 l-838 6 0 -25 0 -25 828 5 c455 2 856 1 892
-3 143 -17 -213 -23 -943 -17 -405 4 -746 3 -757 0 -11 -4 -20 -15 -20 -25 0
-18 15 -19 420 -18 231 0 423 -2 427 -6 8 -7 -118 -9 -534 -7 l-313 2 0 -23 0
-24 416 -1 c229 -1 419 -4 422 -7 5 -6 -90 -7 -635 -8 l-203 -1 0 -507 0 -507
113 5 c128 5 1221 7 2182 3 358 -2 659 -1 670 2 11 3 325 6 698 6 595 1 677 3
677 16 0 13 -84 15 -692 16 -381 1 -731 4 -778 8 l-85 8 90 3 c50 2 108 4 130
5 22 0 331 2 688 3 568 2 647 4 647 17 0 13 -73 15 -592 17 -326 1 -613 3
-638 4 -25 1 -94 2 -154 3 -60 1 -107 3 -105 5 10 9 395 15 922 16 497 0 567
2 567 15 0 13 -68 15 -547 15 -524 1 -903 7 -912 16 -2 2 92 5 210 6 118 1
246 3 284 4 39 1 271 3 518 3 390 1 447 3 447 16 0 13 -58 15 -457 16 -460 0
-854 7 -862 15 -6 6 178 8 892 12 372 2 427 4 427 17 0 13 -50 15 -387 16
-214 1 -473 5 -578 8 l-190 7 135 3 c74 1 160 4 190 5 30 1 229 3 443 4 337 2
387 4 387 17 0 13 -32 15 -227 15 -126 0 -334 3 -463 8 l-235 7 150 6 c83 4
291 7 463 8 270 1 312 3 312 16 0 13 -37 15 -267 16 -148 1 -284 3 -303 4 -19
1 -82 3 -140 5 -98 3 -93 4 70 11 96 3 280 7 408 8 199 1 232 3 232 16 0 13
-31 15 -212 16 -117 1 -287 5 -378 9 l-165 6 130 3 c72 1 159 4 195 5 36 2
147 4 248 4 154 2 182 4 182 17 0 13 -23 15 -137 16 -76 1 -145 3 -153 4 -8 1
-125 3 -259 4 -134 0 -242 3 -240 5 2 2 180 6 394 9 215 4 391 6 393 7 1 0 2
7 2 15 0 19 19 17 -265 21 -132 1 -301 4 -375 5 l-135 3 175 6 c96 3 271 5
388 3 202 -2 212 -1 212 17 0 10 -8 21 -18 24 -9 2 -174 4 -365 4 -192 0 -351
3 -354 6 -7 6 156 9 520 7 l217 -1 0 24 0 24 -332 1 c-182 1 -334 3 -336 6 -6
5 152 7 476 7 l192 -1 0 24 0 24 -227 -1 c-126 -1 -286 0 -358 2 l-130 4 105
6 c58 3 219 5 358 4 l252 -2 0 23 0 22 -267 0 c-148 0 -329 1 -403 3 l-135 3
120 7 c66 3 247 5 403 4 l282 -2 0 22 0 23 -287 -2 c-159 -1 -351 1 -428 4
l-140 6 100 5 c55 3 247 5 428 4 l327 -1 0 21 0 22 -362 0 c-200 -1 -392 1
-428 3 -140 10 18 16 403 16 l387 0 0 21 0 22 -422 0 c-495 0 -493 0 -485 8 4
4 209 7 457 7 l450 1 0 22 0 22 -287 -2 c-159 -1 -317 0 -353 4 -115 10 233
23 448 17 l192 -6 0 26 0 26 -107 -7 c-103 -7 -668 2 -659 11 2 2 170 6 372 8
203 2 375 4 382 5 6 0 12 7 12 15 0 13 -31 15 -212 16 -247 0 -531 8 -537 15
-2 2 27 5 65 5 38 1 107 2 154 4 47 1 185 3 308 4 190 1 222 3 222 16 0 13
-25 15 -167 15 -268 1 -635 9 -641 15 -3 3 33 5 79 6 46 1 149 3 229 5 80 2
225 4 323 4 162 0 177 1 177 18 0 16 -23 17 -342 16 -396 -1 -558 7 -343 17
72 4 255 6 408 5 l277 -2 0 22 0 22 -1061 -2 c-583 0 -1066 2 -1072 6 -15 10
-114 9 1086 10 l1047 1 0 21 c0 21 -2 21 -217 21 -120 -1 -261 2 -313 5 -93 5
-92 5 81 14 97 4 238 6 313 3 130 -6 136 -6 136 13 0 14 -7 20 -22 21 -39 2
-195 5 -362 7 -88 1 -157 4 -155 7 3 2 119 6 259 9 140 2 261 5 268 5 13 1 17
30 5 32 -8 1 -135 4 -368 10 -90 2 -83 3 70 10 94 5 200 7 238 4 65 -4 67 -3
67 21 l0 24 -212 2 -213 2 195 6 c246 9 230 8 230 24 0 23 -24 26 -187 26 -86
0 -154 2 -151 5 2 3 80 5 171 6 l167 1 0 24 0 24 -307 0 c-168 0 -304 2 -302
5 3 2 141 5 307 5 l302 1 0 24 0 25 -267 3 -268 2 268 3 267 2 0 25 0 25 -212
3 -213 2 213 3 212 2 0 25 0 25 -192 3 -193 2 193 3 192 2 0 25 0 25 -187 3
-188 2 188 3 187 2 0 25 0 25 -177 3 -178 2 178 3 177 2 0 25 0 25 -197 3
-198 2 198 3 197 2 0 25 0 24 -142 4 -143 3 143 2 142 2 0 25 0 24 -142 4
-143 3 143 2 142 2 0 25 c0 23 -4 24 -62 28 l-63 3 63 2 c57 2 62 4 62 25 l0
23 -1037 -3 c-2089 -5 -3001 -5 -3150 2 l-153 7 0 -27z m4193 -32 c-7 -2 -19
-2 -25 0 -7 3 -2 5 12 5 14 0 19 -2 13 -5z m-290 -180 c-7 -2 -19 -2 -25 0 -7
3 -2 5 12 5 14 0 19 -2 13 -5z m-292 -53 c158 -16 -729 -28 -996 -12 l-130 7
95 6 c119 8 957 7 1031 -1z m-1134 -6 c-3 -3 -12 -4 -19 -1 -8 3 -5 6 6 6 11
1 17 -2 13 -5z m1261 -1 c-10 -2 -28 -2 -40 0 -13 2 -5 4 17 4 22 1 32 -1 23
-4z m175 0 c-23 -2 -64 -2 -90 0 -26 2 -7 3 42 3 50 0 71 -1 48 -3z m-353 -52
l115 -6 -180 -7 c-241 -10 -657 -10 -830 -1 -139 8 -139 8 -60 14 101 7 801 7
955 0z m178 -8 c-10 -2 -26 -2 -35 0 -10 3 -2 5 17 5 19 0 27 -2 18 -5z m49 1
c-3 -3 -12 -4 -19 -1 -8 3 -5 6 6 6 11 1 17 -2 13 -5z m-1832 -49 c165 -4 302
-9 304 -11 2 -2 -85 -5 -195 -5 -109 -1 -219 -3 -244 -5 -92 -6 -1222 -2
-1390 5 l-175 8 140 3 c77 1 259 6 405 9 284 7 672 6 1155 -4z m1774 -10 c2
-3 -70 -5 -160 -6 -90 -1 -288 -3 -439 -5 -304 -5 -626 6 -510 17 71 7 1102 1
1109 -6z m124 -2 c-7 -2 -21 -2 -30 0 -10 3 -4 5 12 5 17 0 24 -2 18 -5z
m-2068 -48 c28 -3 146 -4 264 -5 118 0 212 -2 210 -4 -8 -7 -751 -21 -1024
-19 -356 3 -977 16 -945 21 110 14 1320 20 1495 7z m1854 -11 c2 -2 -74 -4
-170 -5 -96 0 -309 -2 -474 -4 -165 -2 -322 0 -350 3 l-50 7 55 6 c57 7 982 0
989 -7z m38 0 c-3 -3 -12 -4 -19 -1 -8 3 -5 6 6 6 11 1 17 -2 13 -5z m186 -1
c-7 -2 -19 -2 -25 0 -7 3 -2 5 12 5 14 0 19 -2 13 -5z m44 1 c-3 -3 -12 -4
-19 -1 -8 3 -5 6 6 6 11 1 17 -2 13 -5z m-2308 -54 c34 -19 -25 -25 -229 -25
-294 1 -757 9 -880 15 l-105 5 125 5 c69 3 260 7 425 8 164 2 302 5 305 8 8 9
341 -5 359 -16z m560 -6 c2 -2 -65 -5 -150 -6 -85 -1 -192 -2 -239 -3 -92 -2
-123 3 -114 16 4 8 494 1 503 -7z m1280 7 c107 -1 192 -3 189 -6 -7 -7 -973
-13 -1033 -7 -108 12 21 18 335 16 173 -1 402 -3 509 -3z m-3302 -8 c-20 -2
-52 -2 -70 0 -17 2 0 4 38 4 39 0 53 -2 32 -4z m126 0 c-13 -2 -35 -2 -50 0
-16 2 -5 4 22 4 28 0 40 -2 28 -4z m100 0 c-13 -2 -33 -2 -45 0 -13 2 -3 4 22
4 25 0 35 -2 23 -4z m1840 0 c-7 -2 -19 -2 -25 0 -7 3 -2 5 12 5 14 0 19 -2
13 -5z m50 0 c-7 -2 -19 -2 -25 0 -7 3 -2 5 12 5 14 0 19 -2 13 -5z m1424 1
c-3 -3 -12 -4 -19 -1 -8 3 -5 6 6 6 11 1 17 -2 13 -5z m-2027 -52 l35 -9 -45
-9 c-25 -5 -180 -8 -345 -7 -485 3 -1150 14 -1154 19 -2 2 88 5 200 5 112 1
366 5 564 9 386 8 688 5 745 -8z m278 -4 l57 -1 -55 -6 c-62 -7 -90 -3 -90 11
0 6 7 7 16 4 9 -3 41 -7 72 -8z m1680 -2 c3 -3 -51 -6 -119 -7 -68 0 -306 -2
-529 -4 -223 -2 -418 -1 -435 3 l-30 6 25 7 c29 8 1079 3 1088 -5z m-3545 -3
c-7 -2 -21 -2 -30 0 -10 3 -5 5 12 5 17 0 24 -2 18 -5z m3650 0 c-7 -2 -19 -2
-25 0 -7 3 -2 5 12 5 14 0 19 -2 13 -5z m-2008 -52 l30 -8 -40 -9 c-22 -4
-119 -8 -215 -8 -195 -1 -1406 12 -1430 15 -69 9 200 16 695 18 324 1 592 5
595 8 8 8 331 -6 365 -16z m1660 -3 c127 -1 -11 -5 -305 -10 -294 -4 -555 -5
-580 -1 l-45 7 45 7 c25 3 182 4 350 2 168 -2 409 -4 535 -5z m-1412 -5 c-7
-2 -21 -2 -30 0 -10 3 -4 5 12 5 17 0 24 -2 18 -5z m1925 0 c-27 -2 -69 -2
-95 0 -27 2 -5 3 47 3 52 0 74 -1 48 -3z m100 0 c-10 -2 -26 -2 -35 0 -10 3
-2 5 17 5 19 0 27 -2 18 -5z m-2198 -52 l45 -7 -45 -10 c-52 -11 -1114 -7
-1295 5 l-120 8 85 3 c506 17 1230 18 1330 1z m1739 0 c90 0 162 -3 159 -6 -8
-8 -1258 -17 -1293 -9 -95 21 60 23 1134 15z m-1541 -8 c-10 -2 -26 -2 -35 0
-10 3 -2 5 17 5 19 0 27 -2 18 -5z m1835 0 c-24 -2 -62 -2 -85 0 -24 2 -5 4
42 4 47 0 66 -2 43 -4z m90 0 c-7 -2 -19 -2 -25 0 -7 3 -2 5 12 5 14 0 19 -2
13 -5z m-2093 -51 l35 -9 -35 -8 c-55 -14 -1495 -4 -1509 11 -2 2 40 5 95 5
54 1 275 5 489 8 464 8 876 5 925 -7z m1778 -6 c3 -3 -26 -6 -64 -6 -38 0
-312 -3 -609 -5 -518 -5 -671 -1 -600 16 35 8 1264 3 1273 -5z m-3320 -3 c-15
-2 -42 -2 -60 0 -18 2 -6 4 27 4 33 0 48 -2 33 -4z m1710 0 c-10 -2 -26 -2
-35 0 -10 3 -2 5 17 5 19 0 27 -2 18 -5z m1669 1 c-3 -3 -12 -4 -19 -1 -8 3
-5 6 6 6 11 1 17 -2 13 -5z m-1837 -51 c44 -6 45 -6 15 -14 -37 -11 -1064 -12
-1230 -2 l-120 8 120 6 c66 4 277 7 469 8 193 1 351 3 354 5 5 6 340 -3 392
-11z m1565 -5 c127 -1 -60 -5 -415 -8 -355 -4 -658 -4 -675 -1 -82 14 50 18
440 14 231 -2 524 -5 650 -5z m-3132 -5 c-7 -2 -19 -2 -25 0 -7 3 -2 5 12 5
14 0 19 -2 13 -5z m70 0 c-7 -2 -19 -2 -25 0 -7 3 -2 5 12 5 14 0 19 -2 13 -5z
m135 0 c-10 -2 -26 -2 -35 0 -10 3 -2 5 17 5 19 0 27 -2 18 -5z m3260 0 c-10
-2 -26 -2 -35 0 -10 3 -2 5 17 5 19 0 27 -2 18 -5z m49 1 c-3 -3 -12 -4 -19
-1 -8 3 -5 6 6 6 11 1 17 -2 13 -5z m-758 -53 c272 -1 492 -3 490 -5 -4 -4
-1194 -10 -1239 -6 l-25 2 25 8 c14 5 77 7 140 5 63 -2 337 -4 609 -4z m554
-8 c-7 -2 -21 -2 -30 0 -10 3 -4 5 12 5 17 0 24 -2 18 -5z m124 1 c-3 -3 -12
-4 -19 -1 -8 3 -5 6 6 6 11 1 17 -2 13 -5z m-160 -118 c7 -7 -186 -9 -862 -8
-492 1 -538 2 -460 11 68 8 1314 6 1322 -3z m-1692 -54 c92 -15 -146 -19 -865
-17 -787 4 -885 6 -675 15 189 7 1493 9 1540 2z m-1702 -9 c-18 -2 -48 -2 -65
0 -18 2 -4 4 32 4 36 0 50 -2 33 -4z m2075 0 c-10 -2 -26 -2 -35 0 -10 3 -2 5
17 5 19 0 27 -2 18 -5z m100 0 c-10 -2 -28 -2 -40 0 -13 2 -5 4 17 4 22 1 32
-1 23 -4z m55 0 c-7 -2 -19 -2 -25 0 -7 3 -2 5 12 5 14 0 19 -2 13 -5z m150 0
c-23 -2 -64 -2 -90 0 -26 2 -7 3 42 3 50 0 71 -1 48 -3z m340 0 c-46 -2 -120
-2 -165 0 -46 1 -9 3 82 3 91 0 128 -2 83 -3z m160 0 c-13 -2 -33 -2 -45 0
-13 2 -3 4 22 4 25 0 35 -2 23 -4z m265 0 c-43 -2 -113 -2 -155 0 -43 1 -8 3
77 3 85 0 120 -2 78 -3z m195 0 c-13 -2 -33 -2 -45 0 -13 2 -3 4 22 4 25 0 35
-2 23 -4z m-695 -60 c-21 -2 -55 -2 -75 0 -21 2 -4 4 37 4 41 0 58 -2 38 -4z
m99 1 c-3 -3 -12 -4 -19 -1 -8 3 -5 6 6 6 11 1 17 -2 13 -5z m40 0 c-3 -3 -12
-4 -19 -1 -8 3 -5 6 6 6 11 1 17 -2 13 -5z m96 -1 c-7 -2 -21 -2 -30 0 -10 3
-4 5 12 5 17 0 24 -2 18 -5z m272 -2 c-60 -3 -132 -3 -160 0 -27 3 22 6 110 6
151 -1 154 -1 50 -6z m219 -51 c33 0 57 -2 54 -5 -6 -6 -354 -8 -678 -4 l-225
3 190 6 c105 3 282 4 395 3 113 -1 232 -3 264 -3z m-1216 -7 c-10 -2 -28 -2
-40 0 -13 2 -5 4 17 4 22 1 32 -1 23 -4z m160 0 c-21 -2 -57 -2 -80 0 -24 2
-7 4 37 4 44 0 63 -2 43 -4z m85 0 c-7 -2 -21 -2 -30 0 -10 3 -4 5 12 5 17 0
24 -2 18 -5z m-848 -53 c123 -9 88 -11 -270 -16 -287 -5 -525 4 -430 17 66 8
572 8 700 -1z m842 -6 c-3 -3 -12 -4 -19 -1 -8 3 -5 6 6 6 11 1 17 -2 13 -5z
m756 -1 c-123 -2 -323 -2 -445 0 -123 1 -23 2 222 2 245 0 345 -1 223 -2z
m337 -2 c-14 -5 -45 -5 -70 -1 -41 7 -39 8 25 8 47 0 62 -2 45 -7z m-1950 -51
c170 -11 -357 -19 -655 -10 -75 2 -89 4 -55 9 46 6 612 7 710 1z m-767 -7 c-7
-2 -21 -2 -30 0 -10 3 -4 5 12 5 17 0 24 -2 18 -5z m2175 0 c-27 -2 -69 -2
-95 0 -27 2 -5 3 47 3 52 0 74 -1 48 -3z m79 1 c-3 -3 -12 -4 -19 -1 -8 3 -5
6 6 6 11 1 17 -2 13 -5z m96 -1 c-7 -2 -19 -2 -25 0 -7 3 -2 5 12 5 14 0 19
-2 13 -5z m145 0 c-21 -2 -57 -2 -80 0 -24 2 -7 4 37 4 44 0 63 -2 43 -4z
m-2453 -57 c6 -3 -134 -5 -310 -6 -176 -1 -384 -2 -462 -3 -79 -1 -143 1 -143
5 0 4 15 8 33 10 46 4 870 -1 882 -6z m590 1 c28 -2 -69 -3 -215 -3 -167 0
-222 2 -150 5 108 6 251 5 365 -2z m1935 2 l25 -1 -25 -7 c-14 -4 -47 -5 -75
-2 -46 4 -47 5 -20 12 17 4 39 5 50 3 11 -2 31 -4 45 -5z m-2433 -5 c-3 -3
-12 -4 -19 -1 -8 3 -5 6 6 6 11 1 17 -2 13 -5z m1956 -1 c-7 -2 -21 -2 -30 0
-10 3 -4 5 12 5 17 0 24 -2 18 -5z m314 1 c-3 -3 -12 -4 -19 -1 -8 3 -5 6 6 6
11 1 17 -2 13 -5z m-2565 -61 c-112 -2 -292 -2 -400 0 -108 1 -17 2 203 2 220
0 309 -1 197 -2z m286 0 c-10 -2 -28 -2 -40 0 -13 2 -5 4 17 4 22 1 32 -1 23
-4z m75 0 c-7 -2 -21 -2 -30 0 -10 3 -4 5 12 5 17 0 24 -2 18 -5z m94 1 c-3
-3 -12 -4 -19 -1 -8 3 -5 6 6 6 11 1 17 -2 13 -5z m131 -1 c-21 -2 -57 -2 -80
0 -24 2 -7 4 37 4 44 0 63 -2 43 -4z m1715 0 c-7 -2 -19 -2 -25 0 -7 3 -2 5
12 5 14 0 19 -2 13 -5z m274 1 c-3 -3 -12 -4 -19 -1 -8 3 -5 6 6 6 11 1 17 -2
13 -5z m106 -1 c-7 -2 -19 -2 -25 0 -7 3 -2 5 12 5 14 0 19 -2 13 -5z m-2570
-60 c-112 -2 -294 -2 -405 0 -112 1 -21 2 202 2 223 0 314 -1 203 -2z m234 1
c-3 -3 -12 -4 -19 -1 -8 3 -5 6 6 6 11 1 17 -2 13 -5z m731 -1 c-21 -2 -55 -2
-75 0 -21 2 -4 4 37 4 41 0 58 -2 38 -4z m130 0 c-16 -2 -40 -2 -55 0 -16 2
-3 4 27 4 30 0 43 -2 28 -4z m1145 0 c-7 -2 -21 -2 -30 0 -10 3 -4 5 12 5 17
0 24 -2 18 -5z m70 0 c-7 -2 -19 -2 -25 0 -7 3 -2 5 12 5 14 0 19 -2 13 -5z
m80 0 c-7 -2 -19 -2 -25 0 -7 3 -2 5 12 5 14 0 19 -2 13 -5z m100 0 c-7 -2
-19 -2 -25 0 -7 3 -2 5 12 5 14 0 19 -2 13 -5z m-2305 -58 c-6 -7 -569 -7
-576 0 -3 3 127 5 288 5 161 0 291 -2 288 -5z m39 -1 c-3 -3 -12 -4 -19 -1 -8
3 -5 6 6 6 11 1 17 -2 13 -5z m256 -1 c-7 -2 -21 -2 -30 0 -10 3 -4 5 12 5 17
0 24 -2 18 -5z m125 0 c-10 -2 -26 -2 -35 0 -10 3 -2 5 17 5 19 0 27 -2 18 -5z
m395 0 c-62 -2 -164 -2 -225 0 -62 1 -12 3 112 3 124 0 174 -2 113 -3z m150 0
c-7 -2 -19 -2 -25 0 -7 3 -2 5 12 5 14 0 19 -2 13 -5z m994 1 c-3 -3 -12 -4
-19 -1 -8 3 -5 6 6 6 11 1 17 -2 13 -5z m100 0 c-3 -3 -12 -4 -19 -1 -8 3 -5
6 6 6 11 1 17 -2 13 -5z m50 0 c-3 -3 -12 -4 -19 -1 -8 3 -5 6 6 6 11 1 17 -2
13 -5z m130 0 c-3 -3 -12 -4 -19 -1 -8 3 -5 6 6 6 11 1 17 -2 13 -5z m-1352
-54 l130 -3 -205 -9 c-208 -10 -555 1 -405 12 70 5 233 5 480 0z m-1013 -7
c-78 -2 -206 -2 -285 0 -78 1 -14 3 143 3 157 0 221 -2 142 -3z m406 0 c-10
-2 -28 -2 -40 0 -13 2 -5 4 17 4 22 1 32 -1 23 -4z m835 0 c-13 -2 -33 -2 -45
0 -13 2 -3 4 22 4 25 0 35 -2 23 -4z m330 0 c-29 -2 -78 -2 -110 0 -32 2 -8 3
52 3 61 0 87 -1 58 -3z m400 0 c-7 -2 -21 -2 -30 0 -10 3 -4 5 12 5 17 0 24
-2 18 -5z m244 1 c-3 -3 -12 -4 -19 -1 -8 3 -5 6 6 6 11 1 17 -2 13 -5z m-818
-53 c261 -1 472 -3 470 -5 -6 -6 -1280 -13 -1324 -7 l-40 5 40 7 c22 3 117 5
210 4 94 -2 383 -4 644 -4z m-1396 -8 c-68 -2 -178 -2 -245 0 -68 1 -13 3 122
3 135 0 190 -2 123 -3z m475 0 c-10 -2 -26 -2 -35 0 -10 3 -2 5 17 5 19 0 27
-2 18 -5z m1465 0 c-7 -2 -19 -2 -25 0 -7 3 -2 5 12 5 14 0 19 -2 13 -5z m-74
-59 c8 -8 -1178 -10 -1339 -3 l-55 2 65 7 c68 6 1322 0 1329 -6z m-1966 -1
c-7 -2 -19 -2 -25 0 -7 3 -2 5 12 5 14 0 19 -2 13 -5z m135 0 c-10 -2 -26 -2
-35 0 -10 3 -2 5 17 5 19 0 27 -2 18 -5z m1671 -59 c2 -2 -151 -5 -340 -5
-498 -2 -568 -2 -734 2 l-150 3 140 6 c150 5 1077 1 1084 -6z m54 -1 c-7 -2
-19 -2 -25 0 -7 3 -2 5 12 5 14 0 19 -2 13 -5z m-269 -53 c88 0 157 -2 155 -5
-5 -5 -789 -9 -874 -5 l-50 3 40 6 c22 3 159 5 305 4 146 -2 337 -3 424 -3z
m-791 -7 c-7 -2 -19 -2 -25 0 -7 3 -2 5 12 5 14 0 19 -2 13 -5z m566 -52 c189
-1 342 -3 340 -5 -5 -5 -674 -9 -789 -5 l-65 2 55 6 c30 4 69 6 85 5 17 -1
185 -2 374 -3z m-1486 -68 c-7 -2 -19 -2 -25 0 -7 3 -2 5 12 5 14 0 19 -2 13
-5z m294 1 c-3 -3 -12 -4 -19 -1 -8 3 -5 6 6 6 11 1 17 -2 13 -5z m1026 -1
c-40 -2 -107 -2 -150 0 -43 1 -10 3 72 3 83 0 118 -2 78 -3z m104 1 c-3 -3
-12 -4 -19 -1 -8 3 -5 6 6 6 11 1 17 -2 13 -5z m91 -1 c-16 -2 -40 -2 -55 0
-16 2 -3 4 27 4 30 0 43 -2 28 -4z m75 0 c-7 -2 -19 -2 -25 0 -7 3 -2 5 12 5
14 0 19 -2 13 -5z m105 0 c-16 -2 -40 -2 -55 0 -16 2 -3 4 27 4 30 0 43 -2 28
-4z m1025 0 c-7 -2 -19 -2 -25 0 -7 3 -2 5 12 5 14 0 19 -2 13 -5z m-2245 -60
c-126 -2 -330 -2 -455 0 -126 1 -23 2 227 2 250 0 353 -1 228 -2z m261 -58
c-6 -5 -397 -8 -679 -4 l-255 4 285 5 c283 5 656 2 649 -5z m-991 -2 c-15 -2
-42 -2 -60 0 -18 2 -6 4 27 4 33 0 48 -2 33 -4z m981 -55 l116 -1 -150 -8
c-82 -5 -253 -7 -380 -5 -126 3 -345 6 -485 8 l-255 3 340 6 c187 3 421 4 519
2 99 -1 231 -4 295 -5z m111 -56 l155 -6 -110 -8 c-96 -7 -1136 -4 -1315 4
-97 4 375 13 770 14 190 1 415 -1 500 -4z m140 -60 l145 -7 -100 -6 c-140 -8
-1006 -8 -1325 0 l-265 6 190 5 c297 8 1194 9 1355 2z m237 -8 c-3 -3 -12 -4
-19 -1 -8 3 -5 6 6 6 11 1 17 -2 13 -5z m840 0 c-3 -3 -12 -4 -19 -1 -8 3 -5
6 6 6 11 1 17 -2 13 -5z"/>
</g>
</svg>
